<?xml version="1.0" encoding="UTF-8" standalone="no" ?>
<!DOCTYPE svg PUBLIC "-//W3C//DTD SVG 1.1//EN" "http://www.w3.org/Graphics/SVG/1.1/DTD/svg11.dtd">
<svg xmlns="http://www.w3.org/2000/svg" xmlns:xlink="http://www.w3.org/1999/xlink" version="1.1" width="500" height="500" viewBox="0 0 500 500" xml:space="preserve">
<desc>Created with Fabric.js 5.3.0</desc>
<defs>
</defs>
<g transform="matrix(1 0 0 1 250 249.6422278083)" id="GosDnyZo_M7geKKO9TzRf"  >
<path style="stroke: rgb(0,0,0); stroke-width: 1; stroke-dasharray: none; stroke-linecap: butt; stroke-dashoffset: 0; stroke-linejoin: miter; stroke-miterlimit: 4; fill: rgb(255,255,255); fill-opacity: 0; fill-rule: nonzero; opacity: 1;" vector-effect="non-scaling-stroke"  transform=" translate(0, 0)" d="M -140.00885 193.03173 L -140.00885 -145.64914000000002 L 2.340440000000001 70.60701999999998 L 83.62123 -58.94963000000001 L 83.62123 -132.84126000000003 L 0.000010000000003174137 10.508489999999966 L -83.86645 -120.52599000000004 L -83.86645 -89.49151000000003 L -107.01916 -128.40777000000003 L -107.01916 -203.77723000000003 L 0.000010000000003174137 -40.23043000000004 L 105.78872 -225.44850000000005 L 108.25177 -94.67485000000005 L 140.00886 -145.64915000000005 L 140.00886 188.72683999999995 C 140.00886 188.72683999999995 115.64094 268.40117999999995 83.62123 193.03171999999995" stroke-linecap="round" />
</g>
<g transform="matrix(1 0 0 1 350.3699929662 353.3937023613)" id="r8oQG555m3d0EyHqTilIa"  >
<path style="stroke: rgb(0,0,0); stroke-width: 1; stroke-dasharray: none; stroke-linecap: butt; stroke-dashoffset: 0; stroke-linejoin: miter; stroke-miterlimit: 4; fill: rgb(255,255,255); fill-opacity: 0; fill-rule: nonzero; opacity: 1;" vector-effect="non-scaling-stroke"  transform=" translate(0, 0)" d="M -17.73399 88.91626 L -17.73399 -50.98522 L 5.911330000000003 -88.91624999999999 L 5.911330000000003 77.58621000000002 C 5.911330000000003 77.58621000000002 9.359610000000004 96.30542000000003 17.733990000000006 77.58621000000002" stroke-linecap="round" />
</g>
<g transform="matrix(1 0 0 1 248.8921604539 313.2185518413)" id="e4NWHhuKOG3kGOuf55Ahb"  >
<path style="stroke: rgb(0,0,0); stroke-width: 1; stroke-dasharray: none; stroke-linecap: butt; stroke-dashoffset: 0; stroke-linejoin: miter; stroke-miterlimit: 4; fill: rgb(255,255,255); fill-opacity: 0; fill-rule: nonzero; opacity: 1;" vector-effect="non-scaling-stroke"  transform=" translate(0, 0)" d="M 117.24138 117.76136 L 117.24138 -122.63273000000001 L 1.1078400000000101 57.170230000000004 L -117.24137999999999 -126.08099999999999 L -117.24137999999999 119.73181000000002 C -117.24137999999999 119.73181000000002 -109.85221999999999 134.01752000000002 -104.4335 119.73181000000002" stroke-linecap="round" />
</g>
<g transform="matrix(1 0 0 1 138.0586495228 369.8703608064)" id="s4Z6-9qCtrllwNBXoq_9S"  >
<path style="stroke: rgb(0,0,0); stroke-width: 1; stroke-dasharray: none; stroke-linecap: butt; stroke-dashoffset: 0; stroke-linejoin: miter; stroke-miterlimit: 4; fill: rgb(255,255,255); fill-opacity: 0; fill-rule: nonzero; opacity: 1;" vector-effect="non-scaling-stroke"  transform=" translate(0, 0)" d="M 4.92218 60.61694 L 4.92218 -105.89291 L 28.567500000000003 -75.83626 L 26.104450000000003 69.9292 C 26.104450000000003 69.9292 5.422650000000004 148.80167 -28.5675 72.9396" stroke-linecap="round" />
</g>
<g transform="matrix(1 0 0 1 142.7340249859 430.9799092578)" id="I2vnvxSwLZqch9ayg-j2f"  >
<path style="stroke: rgb(0,0,0); stroke-width: 1; stroke-dasharray: none; stroke-linecap: round; stroke-dashoffset: 0; stroke-linejoin: round; stroke-miterlimit: 10; fill: none; fill-rule: nonzero; opacity: 1;" vector-effect="non-scaling-stroke"  transform=" translate(-142.7340249859, -430.9799092578)" d="M 143.47344124209297 433.44396344504185 Q 143.47344124209297 433.44296344504187 143.47344124209297 433.19665802632267 Q 143.47344124209297 432.9503526076034 143.47344124209297 432.7040471888842 Q 143.47344124209297 432.457741770165 143.47344124209297 432.2114363514458 Q 143.47344124209297 431.9651309327266 143.47344124209297 431.7188255140074 Q 143.47344124209297 431.4725200952882 143.47344124209297 431.22621467656893 Q 143.47344124209297 430.9799092578497 143.47344124209297 430.7336038391305 Q 143.47344124209297 430.4872984204113 143.22713582337377 430.2409930016921 Q 142.98083040465457 429.9946875829729 142.73452498593534 429.9946875829729 Q 142.4882195672161 429.9946875829729 142.4882195672161 429.7483821642537 Q 142.4882195672161 429.50207674553445 142.2419141484969 429.00946590809605 L 141.9946087297777 428.51585507065766" stroke-linecap="round" />
</g>
<g transform="matrix(1 0 0 1 367.1187614391 429.2557713268)" id="53pgTykYss-4ZRsVbaISl"  >
<path style="stroke: rgb(0,0,0); stroke-width: 1; stroke-dasharray: none; stroke-linecap: round; stroke-dashoffset: 0; stroke-linejoin: round; stroke-miterlimit: 10; fill: none; fill-rule: nonzero; opacity: 1;" vector-effect="non-scaling-stroke"  transform=" translate(-367.1187614391, -429.2557713268)" d="M 367.61237227657574 430.4882984204113 Q 367.61137227657576 430.4872984204113 367.61137227657576 430.2409930016921 Q 367.61137227657576 429.9946875829729 367.36506685785656 429.7483821642537 Q 367.11876143913736 429.50207674553445 367.11876143913736 429.25577132681525 Q 367.11876143913736 429.00946590809605 366.87245602041816 428.5168550706576 L 366.625150601699 428.0232442332192" stroke-linecap="round" />
</g>
<g transform="matrix(1 0 0 1 333.1286136559 441.0779314253)" id="XKSyrTJ68t6hq5S9iafbs"  >
<path style="stroke: rgb(0,0,0); stroke-width: 1; stroke-dasharray: none; stroke-linecap: round; stroke-dashoffset: 0; stroke-linejoin: round; stroke-miterlimit: 10; fill: none; fill-rule: nonzero; opacity: 1;" vector-effect="non-scaling-stroke"  transform=" translate(-333.1286136559, -441.0779314253)" d="M 333.6212244933245 441.32373684405667 Q 333.6212244933245 441.32473684405664 333.6212244933245 441.57104226277585 Q 333.6212244933245 441.81734768149505 333.6212244933245 442.0636531002143 Q 333.6212244933245 442.3099585189335 333.3749190746053 442.3099585189335 Q 333.1286136558861 442.3099585189335 332.8823082371669 442.0636531002143 Q 332.6360028184477 441.81734768149505 332.6360028184477 441.57104226277585 Q 332.6360028184477 441.32473684405664 332.6360028184477 441.07843142533744 Q 332.6360028184477 440.83212600661824 332.6360028184477 440.3395151691798 L 332.6360028184477 439.8459043317414" stroke-linecap="round" />
</g>
</svg>